<svg xmlns="http://www.w3.org/2000/svg" xmlns:xlink="http://www.w3.org/1999/xlink" width="1080" zoomAndPan="magnify" viewBox="0 0 810 809.999993" height="1080" preserveAspectRatio="xMidYMid meet" version="1.0"><defs><g/><clipPath id="09f2ffcdce"><path d="M 0 95.175781 L 67 95.175781 L 67 714.675781 L 0 714.675781 Z M 0 95.175781 " clip-rule="nonzero"/></clipPath><clipPath id="4648eaf634"><path d="M 743 95.175781 L 810 95.175781 L 810 714.675781 L 743 714.675781 Z M 743 95.175781 " clip-rule="nonzero"/></clipPath></defs><g clip-path="url(#09f2ffcdce)"><path fill="#e57134" d="M 63.640625 714.824219 C 54.265625 714.1875 46.660156 710.414062 41.003906 703.582031 C 30.589844 691 20.992188 661.171875 34.433594 590.550781 C 48.695312 515.625 43.914062 460.097656 20.214844 425.511719 C 13.632812 415.902344 6.472656 409.386719 0.101562 405 C 6.472656 400.609375 13.632812 394.09375 20.214844 384.484375 C 43.914062 349.902344 48.695312 294.375 34.433594 219.445312 C 20.992188 148.824219 30.585938 118.996094 41 106.414062 C 46.65625 99.582031 54.261719 95.808594 63.640625 95.175781 C 48.214844 118.808594 47.003906 170.046875 60.058594 247.660156 C 74.027344 330.683594 61.679688 366.984375 48.867188 382.816406 C 39.515625 394.367188 29.175781 405.878906 25.164062 406.050781 C 29.175781 406.222656 39.519531 415.664062 48.867188 427.207031 C 61.679688 443.027344 74.027344 479.3125 60.058594 562.335938 C 47.003906 639.953125 48.214844 691.191406 63.640625 714.824219 Z M 63.640625 714.824219 " fill-opacity="1" fill-rule="nonzero"/></g><g clip-path="url(#4648eaf634)"><path fill="#e57134" d="M 746.382812 714.824219 C 761.8125 691.191406 763.019531 639.953125 749.964844 562.335938 C 735.996094 479.316406 748.339844 443.027344 761.15625 427.207031 C 770.503906 415.664062 780.847656 406.222656 784.859375 406.050781 C 780.847656 405.878906 770.507812 394.367188 761.15625 382.816406 C 748.34375 366.984375 735.996094 330.683594 749.964844 247.660156 C 763.019531 170.042969 761.8125 118.808594 746.382812 95.175781 C 755.761719 95.808594 763.367188 99.582031 769.023438 106.414062 C 779.4375 118.996094 789.03125 148.824219 775.589844 219.445312 C 761.328125 294.375 766.113281 349.902344 789.808594 384.484375 C 796.390625 394.09375 803.554688 400.609375 809.921875 405 C 803.554688 409.386719 796.390625 415.902344 789.808594 425.511719 C 766.113281 460.097656 761.328125 515.625 775.589844 590.550781 C 789.03125 661.171875 779.4375 690.996094 769.023438 703.582031 C 763.367188 710.414062 755.761719 714.1875 746.382812 714.824219 Z M 746.382812 714.824219 " fill-opacity="1" fill-rule="nonzero"/></g><g fill="#e57134" fill-opacity="1"><g transform="translate(134.899787, 595.291632)"><g><path d="M 35.359375 -374.265625 L 144.15625 -374.265625 L 144.15625 0 L 35.359375 0 Z M 35.359375 -374.265625 "/></g></g></g><g fill="#e57134" fill-opacity="1"><g transform="translate(314.415196, 595.291632)"><g><path d="M 108.796875 -15.78125 C 104.078125 -30.28125 99.90625 -44.421875 96.28125 -58.203125 L 78.875 -118.046875 C 73.070312 -137.628906 68.539062 -152.316406 65.28125 -162.109375 C 62.375 -172.984375 60.015625 -181.144531 58.203125 -186.59375 L 2.71875 -374.265625 L 113.6875 -374.265625 L 215.421875 0 L 113.6875 0 Z M 194.203125 -165.921875 L 249.140625 -374.265625 L 357.9375 -374.265625 L 302.453125 -186.59375 L 282.328125 -118.046875 C 275.796875 -97.015625 269.8125 -77.066406 264.375 -58.203125 C 260.75 -44.421875 256.578125 -30.28125 251.859375 -15.78125 L 246.96875 0 L 239.359375 0 Z M 194.203125 -165.921875 "/></g></g></g></svg>